REM DIRINDEX 1\2,1\3
REM DIRNAME cjc039,folder01,folder02
TITLE ""
FILE "1001-1020.mp3" MP3
  TRACK 01 AUDIO
    TITLE "0:"
    INDEX 01 00:00:00
  TRACK 02 AUDIO
    TITLE "2:cjc039_1001"
    INDEX 01 00:00:25
  TRACK 03 AUDIO
    TITLE "0:"
    INDEX 01 00:01:36
  TRACK 04 AUDIO
    TITLE "3:cjc039_1002"
    INDEX 01 00:02:12
  TRACK 05 AUDIO
    TITLE "0:"
    INDEX 01 00:06:00
  TRACK 06 AUDIO
    TITLE "2:cjc039_1003"
    INDEX 01 00:07:45
  TRACK 07 AUDIO
    TITLE "0:"
    INDEX 01 00:08:72
  TRACK 08 AUDIO
    TITLE "3:cjc039_1004"
    INDEX 01 00:09:42
  TRACK 09 AUDIO
    TITLE "0:"
    INDEX 01 00:14:13
  TRACK 10 AUDIO
    TITLE "2:cjc039_1005"
    INDEX 01 00:15:62
  TRACK 11 AUDIO
    TITLE "0:"
    INDEX 01 00:16:71
  TRACK 12 AUDIO
    TITLE "3:cjc039_1006"
    INDEX 01 00:17:41
  TRACK 13 AUDIO
    TITLE "0:"
    INDEX 01 00:20:51
  TRACK 14 AUDIO
    TITLE "2:cjc039_1007"
    INDEX 01 00:22:21
  TRACK 15 AUDIO
    TITLE "0:"
    INDEX 01 00:23:40
  TRACK 16 AUDIO
    TITLE "3:cjc039_1008"
    INDEX 01 00:24:16
  TRACK 17 AUDIO
    TITLE "0:"
    INDEX 01 00:29:17
  TRACK 18 AUDIO
    TITLE "2:cjc039_1009"
    INDEX 01 00:30:63
  TRACK 19 AUDIO
    TITLE "0:"
    INDEX 01 00:31:71
  TRACK 20 AUDIO
    TITLE "3:cjc039_1010"
    INDEX 01 00:32:50
  TRACK 21 AUDIO
    TITLE "0:"
    INDEX 01 00:37:32
  TRACK 22 AUDIO
    TITLE "2:cjc039_1011"
    INDEX 01 00:39:07
  TRACK 23 AUDIO
    TITLE "0:"
    INDEX 01 00:40:42
  TRACK 24 AUDIO
    TITLE "3:cjc039_1012"
    INDEX 01 00:41:20
  TRACK 25 AUDIO
    TITLE "0:"
    INDEX 01 00:45:28
  TRACK 26 AUDIO
    TITLE "2:cjc039_1013"
    INDEX 01 00:47:01
  TRACK 27 AUDIO
    TITLE "0:"
    INDEX 01 00:48:08
  TRACK 28 AUDIO
    TITLE "3:cjc039_1014"
    INDEX 01 00:48:61
  TRACK 29 AUDIO
    TITLE "0:"
    INDEX 01 00:52:57
  TRACK 30 AUDIO
    TITLE "2:cjc039_1015"
    INDEX 01 00:54:29
  TRACK 31 AUDIO
    TITLE "0:"
    INDEX 01 00:56:00
  TRACK 32 AUDIO
    TITLE "3:cjc039_1016"
    INDEX 01 00:56:47
  TRACK 33 AUDIO
    TITLE "0:"
    INDEX 01 01:01:33
  TRACK 34 AUDIO
    TITLE "2:cjc039_1017"
    INDEX 01 01:03:00
  TRACK 35 AUDIO
    TITLE "0:"
    INDEX 01 01:04:21
  TRACK 36 AUDIO
    TITLE "3:cjc039_1018"
    INDEX 01 01:04:74
  TRACK 37 AUDIO
    TITLE "0:"
    INDEX 01 01:08:48
  TRACK 38 AUDIO
    TITLE "2:cjc039_1019"
    INDEX 01 01:10:26
  TRACK 39 AUDIO
    TITLE "0:"
    INDEX 01 01:11:56
  TRACK 40 AUDIO
    TITLE "3:cjc039_1020"
    INDEX 01 01:13:32
  TRACK 41 AUDIO
    TITLE "0:"
    INDEX 01 01:18:33
  TRACK 42 AUDIO
    TITLE "2:cjc039_1021"
    INDEX 01 01:20:06
  TRACK 43 AUDIO
    TITLE "0:"
    INDEX 01 01:21:23
  TRACK 44 AUDIO
    TITLE "3:cjc039_1022"
    INDEX 01 01:22:05
  TRACK 45 AUDIO
    TITLE "0:"
    INDEX 01 01:25:57
  TRACK 46 AUDIO
    TITLE "2:cjc039_1023"
    INDEX 01 01:27:32
  TRACK 47 AUDIO
    TITLE "0:"
    INDEX 01 01:28:74
  TRACK 48 AUDIO
    TITLE "3:cjc039_1024"
    INDEX 01 01:29:52
  TRACK 49 AUDIO
    TITLE "0:"
    INDEX 01 01:34:05
  TRACK 50 AUDIO
    TITLE "2:cjc039_1025"
    INDEX 01 01:35:57
  TRACK 51 AUDIO
    TITLE "0:"
    INDEX 01 01:37:01
  TRACK 52 AUDIO
    TITLE "3:cjc039_1026"
    INDEX 01 01:37:54
  TRACK 53 AUDIO
    TITLE "0:"
    INDEX 01 01:42:02
  TRACK 54 AUDIO
    TITLE "2:cjc039_1027"
    INDEX 01 01:43:54
  TRACK 55 AUDIO
    TITLE "0:"
    INDEX 01 01:44:68
  TRACK 56 AUDIO
    TITLE "3:cjc039_1028"
    INDEX 01 01:45:49
  TRACK 57 AUDIO
    TITLE "0:"
    INDEX 01 01:50:43
  TRACK 58 AUDIO
    TITLE "2:cjc039_1029"
    INDEX 01 01:52:16
  TRACK 59 AUDIO
    TITLE "0:"
    INDEX 01 01:53:49
  TRACK 60 AUDIO
    TITLE "3:cjc039_1030"
    INDEX 01 01:54:25
  TRACK 61 AUDIO
    TITLE "0:"
    INDEX 01 01:58:17
  TRACK 62 AUDIO
    TITLE "2:cjc039_1031"
    INDEX 01 01:59:67
  TRACK 63 AUDIO
    TITLE "0:"
    INDEX 01 02:01:17
  TRACK 64 AUDIO
    TITLE "3:cjc039_1032"
    INDEX 01 02:01:66
  TRACK 65 AUDIO
    TITLE "0:"
    INDEX 01 02:05:13
  TRACK 66 AUDIO
    TITLE "2:cjc039_1033"
    INDEX 01 02:06:61
  TRACK 67 AUDIO
    TITLE "0:"
    INDEX 01 02:07:71
  TRACK 68 AUDIO
    TITLE "3:cjc039_1034"
    INDEX 01 02:08:45
  TRACK 69 AUDIO
    TITLE "0:"
    INDEX 01 02:12:38
  TRACK 70 AUDIO
    TITLE "2:cjc039_1035"
    INDEX 01 02:14:16
  TRACK 71 AUDIO
    TITLE "0:"
    INDEX 01 02:15:21
  TRACK 72 AUDIO
    TITLE "3:cjc039_1036"
    INDEX 01 02:16:01
  TRACK 73 AUDIO
    TITLE "0:"
    INDEX 01 02:20:67
  TRACK 74 AUDIO
    TITLE "2:cjc039_1037"
    INDEX 01 02:22:47
  TRACK 75 AUDIO
    TITLE "0:"
    INDEX 01 02:23:66
  TRACK 76 AUDIO
    TITLE "3:cjc039_1038"
    INDEX 01 02:24:44
  TRACK 77 AUDIO
    TITLE "0:"
    INDEX 01 02:29:06
  TRACK 78 AUDIO
    TITLE "2:cjc039_1039"
    INDEX 01 02:30:54
  TRACK 79 AUDIO
    TITLE "0:"
    INDEX 01 02:32:04
  TRACK 80 AUDIO
    TITLE "3:cjc039_1040"
    INDEX 01 02:32:57
  TRACK 81 AUDIO
    TITLE "0:"
    INDEX 01 02:35:73
